<?xml version="1.0"?>
<svg width="400" height="250" xmlns="http://www.w3.org/2000/svg" xmlns:svg="http://www.w3.org/2000/svg">
 <!-- Created with SVG-edit - http://svg-edit.googlecode.com/ -->
 <g>
  <title>Layer 1</title>
  <rect id="svg_1" height="86" width="86" y="103" x="31" stroke-linecap="null" stroke-linejoin="null" stroke-dasharray="null" stroke-width="0" stroke="#000000" fill="#000000"/>
  <text xml:space="preserve" text-anchor="middle" font-family="serif" font-size="24" id="svg_2" y="141" x="168" stroke-linecap="null" stroke-linejoin="null" stroke-dasharray="null" stroke-width="0" stroke="#000000" fill="#ffffff"/>
  <text style="cursor: move;" font-weight="normal" stroke="#000000" transform="matrix(1.2181750642951787,0,0,1.3903888474491333,-285.04341073386377,-133.18070163039474) " xml:space="preserve" text-anchor="middle" font-family="Sans-serif" font-size="24" id="svg_4" y="209.276503" x="293.507399" stroke-linecap="null" stroke-linejoin="null" stroke-dasharray="null" stroke-width="0" fill="#e5e5e5">idea</text>
  <path id="svg_5" d="m135.049835,162.515366c-0.853668,-0.853027 -0.741364,-1.369644 1.333008,-6.151337c1.04657,-2.415039 1.904236,-4.460495 1.904236,-4.546463c0,-0.085526 -2.891846,-0.155838 -6.427002,-0.155838l-6.426605,0l0,-4.522385l0,-4.522873l6.477478,0c4.995026,0 6.422028,-0.135895 6.234283,-0.594833c-0.134552,-0.327164 -1.047852,-2.499039 -2.030273,-4.825653c-1.852448,-4.387131 -1.852448,-5.5634 0.002167,-5.928146c0.923706,-0.181229 15.293732,13.76123 15.787933,15.317307c-4.78717,5.556671 -10.508606,11.373123 -15.779144,16.501465c-0.277466,0 -0.762604,-0.256882 -1.07608,-0.571243z" stroke-linecap="null" stroke-linejoin="null" stroke-dasharray="null" stroke-width="0" stroke="#000000" fill="#000000"/>
  <rect id="svg_6" height="86" width="86" y="102" x="160" stroke-linecap="null" stroke-linejoin="null" stroke-dasharray="null" stroke-width="0" stroke="#000000" fill="#000000"/>
  <text style="cursor: move;" stroke="#000000" transform="matrix(1.3807001632187057,0,0,1.0744683990491666,-140.60168068415334,-12.564013635924383) " xml:space="preserve" text-anchor="middle" font-family="Sans-serif" font-size="24" id="svg_7" y="144.720059" x="248.135694" stroke-linecap="null" stroke-linejoin="null" stroke-dasharray="null" stroke-width="0" fill="#e5e5e5">hard</text>
  <text style="cursor: move;" id="svg_8" stroke="#000000" transform="matrix(0.9801926524534945,0,0,1.0124945231885536,-32.515089571312714,-0.9000390491552075) " xml:space="preserve" text-anchor="middle" font-family="Sans-serif" font-size="24" y="164.441952" x="239.765905" stroke-linecap="null" stroke-linejoin="null" stroke-dasharray="null" stroke-width="0" fill="#e5e5e5">work</text>
  <rect id="svg_9" height="86" width="86" y="102" x="286" stroke-linecap="null" stroke-linejoin="null" stroke-dasharray="null" stroke-width="0" stroke="#000000" fill="#000000"/>
  <path id="svg_10" d="m264.380554,162.33902c-0.853668,-0.853027 -0.741333,-1.369644 1.333008,-6.151337c1.04657,-2.415039 1.904266,-4.460495 1.904266,-4.546463c0,-0.085526 -2.891876,-0.155838 -6.427032,-0.155838l-6.426575,0l0,-4.522385l0,-4.522873l6.477478,0c4.994995,0 6.422028,-0.135895 6.234253,-0.594833c-0.134521,-0.327164 -1.047852,-2.499039 -2.030273,-4.825653c-1.852417,-4.387131 -1.852417,-5.5634 0.002167,-5.928146c0.923706,-0.181229 15.293762,13.76123 15.787933,15.317307c-4.78717,5.556671 -10.508606,11.373123 -15.779114,16.501465c-0.277466,0 -0.762604,-0.256882 -1.076111,-0.571243z" stroke-linecap="null" stroke-linejoin="null" stroke-dasharray="null" stroke-width="0" stroke="#000000" fill="#000000"/>
  <path stroke="#000000" id="svg_14" d="m205.84906,74.572777l-1.300293,-4.55101c0.381042,-0.334251 0.738739,-0.691925 1.076355,-1.074669l4.547638,1.300301c0.479675,-0.698624 0.892487,-1.440681 1.261871,-2.211166l-3.38446,-3.275787c0.16214,-0.481331 0.302551,-0.971039 0.402802,-1.475777l4.561035,-1.143181c0.033417,-0.421165 0.065186,-0.844025 0.065186,-1.275223s-0.033417,-0.852371 -0.065186,-1.273544l-4.561035,-1.143181c-0.101959,-0.504738 -0.24234,-0.994438 -0.402802,-1.475777l3.386108,-3.275795c-0.371033,-0.768806 -0.783844,-1.51255 -1.263519,-2.211159l-4.547638,1.298615c-0.335938,-0.381058 -0.695313,-0.738724 -1.076355,-1.074669l1.300293,-4.549332c-0.698608,-0.477997 -1.442383,-0.892479 -2.21283,-1.261841l-3.275787,3.386101c-0.479706,-0.162117 -0.971069,-0.300842 -1.4758,-0.402786l-1.141479,-4.562714c-0.422852,-0.031761 -0.844025,-0.065186 -1.275208,-0.065186s-0.852417,0.033424 -1.27356,0.065186l-1.143219,4.562714c-0.50473,0.101944 -0.994415,0.240669 -1.475739,0.402786l-3.275787,-3.386101c-0.768829,0.374374 -1.510895,0.787201 -2.209503,1.266861l1.300293,4.549339c-0.381042,0.334259 -0.740417,0.693596 -1.074677,1.072998l-4.549316,-1.300301c-0.479675,0.698608 -0.892517,1.442352 -1.261871,2.21283l3.386108,3.275787c-0.160461,0.481346 -0.300812,0.971046 -0.402802,1.475784l-4.562683,1.143181c-0.031738,0.421173 -0.065216,0.844017 -0.065216,1.273544s0.033478,0.852386 0.065216,1.275223l4.562683,1.143181c0.10199,0.504745 0.24234,0.994438 0.402802,1.475784l-3.386108,3.27578c0.369354,0.768814 0.782196,1.512558 1.261871,2.211166l4.549316,-1.300301c0.334259,0.382744 0.693634,0.738739 1.074677,1.074669l-1.300293,4.55101c0.698608,0.477989 1.442322,0.8908 2.211151,1.261848l3.275787,-3.386108c0.481323,0.162125 0.971039,0.302521 1.4758,0.402802l1.143158,4.56102c0.421204,0.033447 0.844025,0.065201 1.275208,0.065201s0.852386,-0.033432 1.275238,-0.065201l1.141541,-4.56102c0.50473,-0.101952 0.996094,-0.24234 1.475739,-0.402802l3.275787,3.386108c0.76712,-0.374374 1.510895,-0.787201 2.209503,-1.26519zm-9.379456,-8.024017c-3.137085,0 -5.680847,-2.543747 -5.680847,-5.680824s2.543762,-5.679146 5.680847,-5.679146s5.679138,2.542084 5.679138,5.679146s-2.542053,5.680824 -5.679138,5.680824zm25.89212,11.874733c0.031769,-0.914215 -0.100281,-1.845154 -0.384399,-2.764359l2.079132,-2.963257c-0.314209,-0.584961 -0.668579,-1.139847 -1.07132,-1.644569l-3.5466,0.743736c-0.715302,-0.60836 -1.529205,-1.083023 -2.399963,-1.422302l-1.02121,-3.47467c-0.645111,-0.113655 -1.298615,-0.175499 -1.960449,-0.17717l-1.627869,3.23568c-0.466278,0.090263 -0.932556,0.213936 -1.390533,0.38942c-0.429504,0.163788 -0.830658,0.367691 -1.215088,0.589989l-3.352631,-1.36882c-0.496399,0.437889 -0.94931,0.910858 -1.358795,1.423958l1.5159,3.289162c-0.432861,0.827316 -0.730377,1.718124 -0.867401,2.649048l-3.160492,1.771591c0.031769,0.648499 0.127045,1.296967 0.274109,1.947113l3.516479,0.867401c0.386047,0.875778 0.904175,1.659622 1.530914,2.328171l-0.588318,3.573288c0.534851,0.384399 1.103088,0.715302 1.693024,1.002777l2.866333,-2.206131c0.895844,0.235657 1.833435,0.325882 2.77771,0.250687l2.426758,2.685822c0.33432,-0.095276 0.666901,-0.197235 0.996155,-0.322571c0.29248,-0.110306 0.568237,-0.240677 0.844025,-0.372711l0.061798,-3.618408c0.760498,-0.566574 1.408966,-1.248489 1.925354,-2.015625l3.611755,-0.223938c0.254059,-0.600021 0.466309,-1.223434 0.615051,-1.863541l-2.789429,-2.309769zm-6.957703,3.35434c-2.007263,0.765472 -4.25351,-0.240662 -5.02066,-2.24791s0.238953,-4.255188 2.246277,-5.022331c2.007263,-0.765465 4.256866,0.240677 5.023987,2.247917c0.765442,2.007263 -0.24234,4.255203 -2.249603,5.022324z" stroke-linecap="null" stroke-linejoin="null" stroke-dasharray="null" stroke-width="0" fill="#000000"/>
  <path id="svg_15" d="m69.906311,87.906067c-3.38353,-0.897568 -5.343674,-4.587708 -5.112488,-7.935287c-0.086609,-4.372559 0.316818,-8.973587 -1.774124,-12.994125c-1.191788,-3.001854 -3.222,-5.65226 -4.069229,-8.780525c-1.054367,-4.85334 0.247955,-10.354065 4.171875,-13.612297c4.425232,-3.791855 11.49202,-4.286087 16.363358,-1.063225c3.435669,2.366592 5.914642,6.269951 5.822617,10.529419c0.403122,3.182762 -0.852966,6.176445 -2.330719,8.912552c-1.058716,2.203033 -2.295197,4.358818 -3.256134,6.586411c-0.253342,4.567406 -0.108047,9.176704 -0.795181,13.704826c-1.144623,3.508774 -5.458313,5.894394 -9.019974,4.652252l0,0zm8.93634,-8.166595c-2.00795,-1.082382 -4.893494,-0.378677 -7.22757,-0.611679c-1.906555,0.381332 -5.294403,-0.782181 -6.308014,0.96315c2.318069,0.906769 5.042175,0.227051 7.509979,0.377075c1.974457,-0.189651 4.246323,0.179825 6.025604,-0.728546l0,0zm-0.150299,-2.036743c0.295502,-2.749893 -4.05304,-1.346664 -5.819595,-1.756027c-2.338135,0.473251 -6.059067,-1.013023 -7.529572,1.099823c0.871384,2.12323 4.757492,0.62999 6.798141,1.101089c2.176102,-0.077118 4.433777,0.077972 6.551025,-0.444885l0,0zm0.027039,-4.818047c0.574066,-5.356888 3.849442,-9.817169 5.745941,-14.717339c1.559357,-5.866913 -1.528839,-12.569611 -7.120026,-15.032288c-5.565201,-2.758171 -12.979813,-0.674553 -16.124924,4.729996c-3.030304,4.464325 -2.45195,10.530052 0.509781,14.871567c2.113266,3.794235 3.799332,8.058159 3.524658,12.473785c4.386658,0 8.773285,0 13.160034,0c0.101471,-0.77523 0.202972,-1.550507 0.304535,-2.325722zm-9.711334,-7.589241c-1.737976,-3.021988 -3.522232,-6.067261 -4.732483,-9.342346c1.088104,-1.408493 1.404648,-2.977409 1.742676,-4.632332c3.054016,-0.599884 -0.388733,3.48027 2.494659,3.572205c2.559479,1.113617 1.436707,-5.403519 3.563156,-3.054405c-1.526505,2.578133 2.998276,5.142906 3.164337,1.454758c-0.21936,-2.784721 2.734863,-2.262978 1.583084,0.263344c0.095032,1.299576 2.210968,1.672134 2.247223,2.717392c-1.523239,3.304024 -2.84726,6.715172 -4.65094,9.878242c-0.405991,-1.224663 1.596771,-4.294029 2.236725,-6.09623c1.234863,-1.557831 2.296082,-5.756088 -0.923218,-5.18383c-1.867493,2.912811 -4.3797,-1.836082 -6.208206,0.955399c-1.552231,0.463028 -3.993561,-2.688217 -4.443863,0.341766c1.169083,3.598854 3.601685,6.665985 4.874451,10.227692c-0.4319,-0.254616 -0.677811,-0.701363 -0.947601,-1.101654l0,0zm-2.439484,-13.189369c-0.845123,-0.412483 0.356216,2.192818 -0.000015,0l0.000015,0zm5.051422,0.307724c-1.097092,-1.856705 -0.508667,2.252762 0,0zm4.896362,0c-1.097107,-1.856705 -0.508789,2.252762 0,0zm-22.794525,-13.719452c-1.939102,-1.967995 -4.082535,-3.814621 -5.768906,-5.98391c4.212952,3.487358 8.068939,7.414886 11.865616,11.352219c1.008148,1.385391 -1.758835,-1.293701 -2.273834,-1.742798c-1.288559,-1.193352 -2.560226,-2.404839 -3.822876,-3.625511l0,0zm29.94342,5.626694c3.277512,-4.083801 6.335541,-8.365089 9.869217,-12.231346c-0.591721,1.664612 -2.496475,3.656456 -3.694061,5.370865c-2.000061,2.488258 -3.869522,5.119141 -6.156677,7.350105c-0.285431,0.301727 -0.711655,-0.41291 -0.018463,-0.489624l-0.000015,0l0,0zm-7.099167,-3.87426c1.13237,-3.239021 2.774918,-6.322205 4.607559,-9.221077c-0.042648,1.608154 -1.986145,4.656128 -2.920425,6.650162c-0.528442,0.802414 -0.974167,2.08213 -1.687134,2.570915zm-14.50174,-4.153938c-0.788818,-1.150604 -3.163406,-3.829811 -2.720032,-4.195183c2.289383,2.538406 4.617889,5.158447 6.262527,8.160339c-1.400558,-1.074142 -2.408325,-2.62558 -3.542496,-3.965157l0,0zm9.066025,-0.90554c-0.159637,-1.080597 0.335999,-6.23909 0.611252,-2.736374c0.001053,2.194626 0.230118,4.665245 -0.380783,6.66275c-0.261597,-1.284233 -0.198151,-2.621216 -0.230469,-3.926376l0,0z" stroke-linecap="null" stroke-linejoin="null" stroke-dasharray="null" stroke-width="0" stroke="#000000" fill="#000000"/>
  <path id="svg_16" d="m328.466003,46.466003c-11.598114,0 -21,9.401878 -21,21.000008c0,11.598106 9.401886,20.999992 21,20.999992c11.598114,0 21,-9.401886 21,-20.999992c0,-11.598129 -9.401886,-21.000008 -21,-21.000008zm1.813324,32.385712l0,2.957687l-2.829071,0l0,-2.924454c-4.642426,-0.635742 -6.676849,-4.450256 -6.676849,-4.450256l2.89267,-2.417297c0,0 1.843689,3.21199 5.181366,3.21199c1.843689,0 3.24234,-0.986862 3.24234,-2.6716c0,-3.943092 -10.6185,-3.464836 -10.6185,-10.777412c0,-3.178757 2.51123,-5.46891 5.977539,-6.009293l0,-2.95768l2.829071,0l0,2.956238c2.415863,0.317871 5.276733,1.589371 5.276733,4.324547l0,2.097977l-3.750946,0l0,-1.017197c0,-1.048996 -1.336517,-1.748314 -2.830536,-1.748314c-1.907257,0 -3.305878,0.953621 -3.305878,2.288696c0,4.037025 10.618469,3.051613 10.618469,10.713852c0.001465,3.148407 -2.35083,5.882141 -6.006409,6.422516z" stroke-linecap="null" stroke-linejoin="null" stroke-dasharray="null" stroke-width="0" stroke="#000000" fill="#000000"/>
  <text stroke="#000000" xml:space="preserve" text-anchor="middle" font-family="Sans-serif" font-size="24" id="svg_18" y="228.141247" x="197.937968" stroke-linecap="null" stroke-linejoin="null" stroke-dasharray="null" stroke-width="0" fill="#000000">no magic required!</text>
  <text stroke="#000000" transform="matrix(0.8072289228439331,0,0,0.8072289228439331,65.79517827183008,33.73493850231171) " xml:space="preserve" text-anchor="middle" font-family="Sans-serif" font-size="24" id="svg_19" y="144.97015" x="326.059702" stroke-linecap="null" stroke-linejoin="null" stroke-dasharray="null" stroke-width="0" fill="#e5e5e5">success!</text>
  <path d="m14,13c-1.835999,0.010666 -2.630196,-0.002151 -3.626999,0.375168c-0.818825,0.309952 -1.487694,0.762962 -2.373001,1.291496c-0.530632,0.316788 -1.113045,0.674316 -1.742996,1.066505c-0.674126,0.419693 -1.383453,0.868752 -2.121002,1.345497c-0.764511,0.494171 -1.550484,1.002472 -3.136002,2.087997c-0.802643,0.54953 -1.596245,1.112473 -2.382004,1.677002c-0.776894,0.558159 -1.535561,1.113449 -2.273994,1.659004c-0.716209,0.529144 -1.403145,1.04203 -2.677338,1.99733c-0.580711,0.435379 -1.125427,0.843468 -1.633499,1.233002c-0.479858,0.367905 -0.932037,0.721626 -1.3545,1.070999c-0.406448,0.336128 -1.5187,1.35627 -1.857002,1.717331c-0.673561,0.718864 -1.283768,1.475731 -1.574997,1.853333c-0.567398,0.73568 -1.330734,1.799438 -1.780502,2.459167c-0.409065,0.600021 -1.090103,1.324745 -1.394165,2.494171c-0.220848,0.84938 -0.071999,1.642662 -0.071999,2.695328c0,0.560005 0,1.550003 0,2.719833c0,0.875671 0,1.3395 0,2.314171c0,0.508835 0,2.109329 0,2.66433c0,1.139999 0,1.724998 0,2.32c0,1.220001 0,1.845001 0,3.125c0,0.654335 0,1.977005 0,2.637337c0,0.654335 0,1.298668 0,2.541336c0,1.154663 0,2.198662 0,2.683167c0,0.908997 0,1.757996 0,2.971497c0,0.801331 0,1.610664 0,2.435997c0,0.849335 0,2.185333 0,2.648003c0,0.94133 0,1.890671 0,2.363335c0,1.386002 0,2.267334 0,3.116669c0,0.825333 0,1.634666 0,2.835991c0,0.800003 0,1.600006 0,2.400009c0,1.199997 0.00666,2.000137 -0.010666,2.800003c-0.017334,0.800201 -0.038666,1.60463 -0.210999,2.799988c-0.115891,0.803848 -0.306221,1.603928 -0.540001,2.400009c-0.11808,0.402084 -0.538887,1.609497 -0.904503,2.399994c-0.374786,0.810318 -0.840149,1.608215 -1.105835,2c-0.832123,1.227081 -1.195869,1.600327 -1.867996,2.410675c-0.339775,0.409653 -1.01754,1.232712 -1.306664,1.674667c-0.849525,1.298599 -1.195442,2.271942 -1.345337,2.761322c-0.30381,0.991898 -0.406403,1.512726 -0.708,3.12001c-0.103935,0.553909 -0.204643,1.116348 -0.389336,2.258667c-0.092834,0.574188 -0.25914,1.721313 -0.325333,2.290665c-0.129753,1.116089 -0.20472,2.197098 -0.228165,2.722336c-0.045509,1.019623 -0.054016,2 -0.055832,2.474991c-0.005219,1.365158 -0.001335,2.229507 -0.001335,3.065842c0,0.81633 0,2.020828 0,2.819489c0,0.79068 0,1.565338 0,2.31601c0,1.398666 0,2.038666 0,2.92366c0,1.040329 -0.000458,1.96167 0,2.645676c0.000671,1.001328 -0.013245,1.839981 0.085335,2.717331c0.101547,0.903778 0.356064,1.836182 0.597328,2.506668c0.271545,0.754639 0.858894,2.056671 1.085335,2.545334c0.236183,0.509689 0.733658,1.566727 0.981339,2.106659c0.246986,0.538406 0.924461,2.103958 1.107834,2.597336c0.34655,0.932404 0.623764,1.842133 0.7575,2.293335c0.271591,0.916275 0.706726,2.392654 0.869331,2.922668c0.168732,0.549988 0.51947,1.709015 0.690666,2.319992c0.176247,0.629013 0.366432,1.274384 0.658669,2.639999c0.306427,1.431931 0.410698,2.180161 0.519997,2.938675c0.110786,0.76886 0.205238,1.548782 0.285004,2.33699c0.080269,0.793152 0.19899,2.390793 0.240334,3.19101c0.041321,0.799805 0.069664,1.59996 0.096001,2.399994c0.026329,0.799973 0.04866,1.600082 0.077995,2.400009c0.029335,0.800064 0.108986,2.40036 0.168999,3.199829c0.059998,0.799225 0.134827,1.596222 0.224998,2.389496c0.089851,0.790436 0.194572,1.5755 0.315002,2.3535c0.119606,0.77269 0.40023,2.291504 0.559669,3.035675c0.157944,0.737183 0.329689,1.464722 0.503998,2.185501c0.173042,0.715561 0.350891,1.424942 0.522003,2.131485c0.170212,0.702805 0.634674,2.803497 0.767334,3.501846c0.131645,0.693008 0.250961,1.381058 0.364494,2.060989c0.111778,0.669418 0.315598,1.971649 0.520836,3.208344c0.097969,0.590302 0.296112,1.709885 0.389336,2.23999c0.175819,0.999802 0.282097,1.466095 0.444,2.76001c0.138542,1.107208 0.082695,1.763168 0.250664,2.559998c0.236397,1.121414 1.022255,1.612106 1.916,1.773331c0.764015,0.137817 1.495056,0.855545 1.867996,1.339996c0.457748,0.59462 0.983116,1.324799 1.632004,2.160004c0.750191,0.965591 1.176567,1.484558 1.618668,2.039993c0.465263,0.584534 0.951546,1.198303 1.451996,1.845001c0.520973,0.673218 1.600212,2.111969 2.150169,2.879166c0.5635,0.786102 1.124084,1.594482 1.672501,2.422516c0.549965,0.830353 1.081528,1.668396 1.582497,2.512482c0.492264,0.829407 1.369431,2.461884 1.738167,3.258179c0.35627,0.769379 0.667351,1.53363 0.942001,2.291992c0.270584,0.747162 0.507919,1.49942 0.726006,2.256012c0.219299,0.760773 0.620308,2.327423 0.817665,3.136658c0.200012,0.820099 0.393867,1.644745 0.578995,2.466003c0.182167,0.808105 0.352631,1.596649 0.507004,2.358002c0.146805,0.72403 0.385399,2.033325 0.471497,2.604675c0.077469,0.514069 0.134583,0.977142 0.181503,1.391998c0.041908,0.370514 -0.009659,1.32077 0.468002,2.281494c0.264542,0.532074 0.925705,1.190826 1.333328,1.662506c1.090782,1.262207 1.795799,2.072174 2.594666,2.996002c0.88044,1.018158 1.827927,2.11322 2.832001,3.263977c1.041206,1.193298 2.106606,2.410217 3.192001,3.624023c2.132072,2.384308 3.170914,3.506409 4.183998,4.575989c0.975822,1.030243 1.930855,2.007965 2.874001,2.924988c0.907883,0.882721 1.797775,1.717285 2.694,2.475006c1.695152,1.433197 2.558952,2.038025 3.401337,2.604004c0.813751,0.546722 1.624855,1.03833 2.425499,1.48349c0.774338,0.430542 1.538757,0.819427 2.290497,1.168518c1.429596,0.663879 2.128052,0.937408 2.802673,1.20932c0.658417,0.26535 1.308334,0.516479 1.948502,0.768005c0.635834,0.249817 1.271957,0.498291 1.903488,0.768005c1.290222,0.551025 1.940109,0.87088 2.598679,1.198669c0.664139,0.330566 1.322708,0.673248 1.97699,1.012482c0.644379,0.334076 1.271515,0.664703 1.887009,0.967499c1.148895,0.565216 1.688324,0.794067 2.199997,1c0.485825,0.195526 0.957123,0.367279 1.412994,0.532501c0.445465,0.161438 0.887924,0.315033 1.322998,0.487518c0.890823,0.353149 1.341812,0.572021 1.801346,0.801331c0.467529,0.233307 0.932556,0.481598 1.3965,0.731995c0.460052,0.248291 0.909256,0.497894 1.351501,0.731995c0.832779,0.440796 1.225388,0.628082 1.601334,0.800018c0.36145,0.165314 0.717331,0.317322 1.067993,0.467987c0.350662,0.150665 0.707291,0.301025 1.067993,0.467987c0.769623,0.356232 1.175858,0.572144 1.598679,0.800018c0.435562,0.234741 0.874863,0.47998 1.746658,0.981323c0.834824,0.480103 1.916977,1.116821 2.510666,1.431824c0.70224,0.372589 1.705811,0.753021 2.326004,0.818848c0.686813,0.072876 2.416748,0.165527 3.230667,0.221832c0.938095,0.06488 1.994217,0.141724 3.162003,0.235504c1.274231,0.102325 2.648376,0.221222 4.115997,0.361511c1.556427,0.148773 4.90834,0.511688 6.692841,0.72348c1.854172,0.220062 3.775009,0.459625 5.764496,0.687012c2.054169,0.234802 4.173462,0.461426 6.35849,0.651001c2.245682,0.194824 6.924973,0.470886 9.352676,0.533813c2.469757,0.064026 4.966385,0.071747 7.471497,0.052521c2.497253,-0.019165 4.969406,-0.070099 7.399506,-0.127502c2.371231,-0.05603 6.868423,-0.176117 8.9655,-0.217682c1.998932,-0.039612 3.911957,-0.067047 5.750992,-0.08548c1.776978,-0.017792 3.503998,-0.026825 5.193008,-0.031525c1.662994,-0.004608 4.959,-0.004486 6.614822,-0.004486c1.670837,0 3.361679,0 5.077499,0c1.745834,0 3.526672,0 5.347504,0c1.865845,0 5.752502,0.000519 7.780823,-0.000153c2.078339,-0.000671 4.196686,-0.002411 6.345001,-0.010529c2.168335,-0.008209 4.34671,-0.021759 6.525024,-0.046478c2.168365,-0.024597 6.435181,-0.103424 8.515472,-0.164673c2.043701,-0.060181 4.053375,-0.136597 6.031525,-0.235504c1.950897,-0.097534 3.876648,-0.216156 5.77948,-0.361511c1.885254,-0.144012 5.609741,-0.503998 7.454834,-0.72464c1.845612,-0.220703 3.696198,-0.474335 5.559021,-0.760498c1.887909,-0.290039 3.80426,-0.616486 5.756989,-0.976501c2.002014,-0.36911 6.172272,-1.213562 8.35318,-1.683502c2.236481,-0.481903 4.506927,-0.991394 6.796478,-1.512024c2.292786,-0.521362 4.569244,-1.048309 6.814514,-1.565979c2.196106,-0.506348 6.372864,-1.460815 8.322662,-1.893188c1.843597,-0.408813 3.578339,-0.784302 5.19751,-1.135498c1.499146,-0.325165 2.874146,-0.621613 4.117493,-0.901489c1.109924,-0.249847 2.905518,-0.684052 3.580322,-0.884674c0.547394,-0.16275 0.977905,-0.314484 1.303497,-0.46048c0.251312,-0.112701 0.433044,-0.221924 0.565521,-0.316498c0.105774,-0.0755 0.282928,-0.210358 0.404999,-0.244507c0.185577,-0.05191 0.500824,-0.065796 0.985504,-0.075012c0.708374,-0.013489 1.692017,-0.002197 3.001495,0.015015c1.686523,0.022156 6.394501,0.105011 9.497314,0.159668c3.559845,0.062683 7.503632,0.132294 11.758514,0.203979c4.492798,0.075714 9.150635,0.151489 13.900482,0.222015c4.768829,0.070801 14.071442,0.191223 18.472504,0.230652c4.20697,0.037689 8.226013,0.06073 12.063019,0.054016c3.661011,-0.006409 7.152252,-0.036652 10.479004,-0.108002c3.169281,-0.067993 9.058502,-0.300629 11.789001,-0.490173c2.605621,-0.180878 5.09668,-0.414917 7.475983,-0.748505c2.297028,-0.322052 4.514648,-0.733093 6.64801,-1.270508c2.099365,-0.528839 6.162598,-1.939117 8.133667,-2.830139c1.987335,-0.898376 3.929626,-1.934021 5.828979,-3.06601c1.9086,-1.137512 3.765472,-2.374664 5.577026,-3.678009c1.809998,-1.302216 5.284729,-4.057831 6.950165,-5.48349c1.647888,-1.410645 3.234924,-2.849701 4.747498,-4.318512c1.485657,-1.442688 2.894257,-2.905212 4.207489,-4.390503c1.279816,-1.447479 3.561462,-4.361786 4.53833,-5.827667c0.949341,-1.424561 1.793274,-2.874146 2.527496,-4.34848c0.727509,-1.460815 1.356995,-2.9664 1.897522,-4.510498c0.546692,-1.561707 1.426025,-4.856506 1.782959,-6.59201c0.367859,-1.788666 0.671204,-3.650482 0.931519,-5.581512c0.269348,-1.998047 0.48877,-4.074829 0.679504,-6.229492c0.197693,-2.233368 0.515503,-6.958099 0.653503,-9.451324c0.142212,-2.569443 0.265747,-5.20343 0.375,-7.888504c0.110779,-2.72261 0.204956,-5.47052 0.284973,-8.230499c0.079956,-2.758698 0.200867,-8.221405 0.239685,-10.903336c0.038452,-2.652756 0.060303,-5.287659 0.054016,-7.915497c-0.006287,-2.631866 -0.039246,-5.278946 -0.108032,-7.951508c-0.069763,-2.710144 -0.311462,-8.285248 -0.488831,-11.167496c-0.18103,-2.941803 -0.403748,-5.929001 -0.66449,-8.949005c-0.262817,-3.044067 -0.5625,-6.097305 -0.898499,-9.146988c-0.334717,-3.038361 -1.092468,-9.022858 -1.515137,-11.944839c-0.414917,-2.868713 -0.858826,-5.671783 -1.32901,-8.401505c-0.457489,-2.655945 -0.936615,-5.225204 -1.437012,-7.699493c-0.481415,-2.380341 -1.477875,-6.811752 -1.990845,-8.849838c-0.486389,-1.93251 -0.985413,-3.757629 -1.489471,-5.483994c-0.480072,-1.644226 -0.968262,-3.204742 -1.453522,-4.692001c-0.465698,-1.427353 -1.388611,-4.116661 -1.835999,-5.397339c-0.436676,-1.249977 -0.870819,-2.475441 -1.306488,-3.683998c-0.43335,-1.20211 -0.87381,-2.403481 -1.324493,-3.612c-0.457275,-1.226166 -1.418884,-3.757805 -1.934021,-5.074501c-0.528717,-1.351372 -1.080322,-2.726456 -1.681488,-4.105499c-0.607758,-1.394127 -1.255127,-2.782776 -1.969513,-4.141502c-0.713806,-1.357582 -2.310669,-3.954857 -3.213501,-5.159828c-0.897766,-1.198219 -1.876587,-2.331223 -2.924988,-3.396004c-1.052032,-1.068466 -2.181488,-2.073601 -3.375,-3.017998c-1.206757,-0.95488 -3.813354,-2.713463 -5.199341,-3.529663c-1.408752,-0.82962 -2.876404,-1.609634 -4.382996,-2.367004c-1.528107,-0.768188 -3.096344,-1.50631 -4.688995,-2.240997c-1.610016,-0.742706 -4.888153,-2.220451 -6.541016,-2.977669c-1.659149,-0.760109 -3.315643,-1.527809 -4.961975,-2.304001c-1.635651,-0.771164 -3.250336,-1.544579 -4.835999,-2.321999c-1.558289,-0.764008 -4.550812,-2.280632 -5.972351,-3.030167c-1.373077,-0.723984 -2.684021,-1.435867 -3.932983,-2.122498c-1.185638,-0.651825 -2.298309,-1.273987 -3.33902,-1.852501c-0.962006,-0.534767 -2.634216,-1.45285 -3.343323,-1.818336c-0.621918,-0.320541 -1.171783,-0.588135 -1.658997,-0.802498c-0.423889,-0.186493 -0.800415,-0.333359 -1.136993,-0.442505c-0.298492,-0.096802 -0.830353,-0.221344 -1.086334,-0.26416c-0.30661,-0.051285 -0.728638,-0.103523 -1.326019,-0.180004c-0.835297,-0.106937 -1.970886,-0.251678 -3.467987,-0.449997c-1.9216,-0.254551 -7.284332,-0.987598 -10.826355,-1.483334c-4.076721,-0.570568 -8.611053,-1.213799 -13.526978,-1.920002c-5.222778,-0.750286 -10.675293,-1.542542 -16.281006,-2.369999c-5.684937,-0.839153 -16.98349,-2.546894 -22.459015,-3.394001c-5.332458,-0.824974 -10.524872,-1.641335 -15.587982,-2.411999c-4.934906,-0.751152 -9.749451,-1.466537 -14.45401,-2.105999c-4.591583,-0.624104 -13.47937,-1.666149 -17.787506,-2.054001c-4.216095,-0.379566 -8.351807,-0.667019 -12.406494,-0.888c-3.974426,-0.216606 -7.87561,-0.365128 -11.704498,-0.473999c-3.759155,-0.106888 -11.083435,-0.226215 -14.654175,-0.26717c-3.514618,-0.04031 -6.977295,-0.067234 -10.391998,-0.085499c-3.370667,-0.018032 -6.701324,-0.026817 -9.996002,-0.031498c-3.262665,-0.004635 -9.707993,-0.004501 -12.898987,-0.004501c-3.177002,0 -6.346008,0 -9.513,0c-3.171005,0 -6.352005,0 -9.548996,0c-3.219009,0 -9.747009,-0.00248 -13.064667,0.000832c-3.343674,0.003338 -6.699448,0.011547 -10.053009,0.052502c-3.337799,0.040764 -6.645981,0.107925 -9.908997,0.232502c-3.206421,0.122417 -9.389664,0.520103 -12.338165,0.821663c-2.861008,0.292614 -5.633392,0.658005 -8.323502,1.072502c-2.624298,0.404358 -5.179642,0.861244 -7.675491,1.342499c-2.449493,0.472317 -7.216919,1.475574 -9.551834,1.977169c-2.307755,0.495762 -4.588333,0.992901 -6.846008,1.479c-2.235001,0.481216 -4.4496,0.954487 -6.647995,1.406998c-2.180283,0.448784 -6.502792,1.287651 -8.648499,1.671669c-2.130325,0.381268 -4.246979,0.737469 -6.343506,1.091999c-2.074478,0.350803 -4.125168,0.694721 -6.1455,1.056c-1.991676,0.356155 -5.869347,1.115166 -7.745995,1.537498c-1.839371,0.413944 -3.629715,0.856667 -5.368507,1.318501c-1.6922,0.449459 -3.326424,0.915874 -4.900497,1.390499c-1.517876,0.45768 -4.353317,1.376156 -5.666664,1.826168c-1.247917,0.427589 -2.425339,0.848557 -3.5355,1.253998c-1.046127,0.382057 -2.025337,0.749336 -2.941505,1.092003l-0.853165,0.318665" id="svg_20" stroke-linecap="null" stroke-linejoin="null" stroke-dasharray="null" stroke-width="0" stroke="#000000" fill="none"/>
  <path d="m-5,16c1,0.166664 1.653023,0.646049 2.545166,1.101669c0.517487,0.264282 1.26989,0.601891 1.744171,0.85833c0.565933,0.306 1.23262,0.677261 2.877327,1.706665c1.019775,0.63826 2.147926,1.385452 3.394501,2.2005c1.349419,0.882294 2.789764,1.825378 4.321503,2.803505c1.601143,1.022446 3.25631,2.090492 6.783997,4.162666c1.808403,1.062263 3.66404,2.086121 5.535004,3.109497c1.87571,1.025978 3.75811,2.033676 5.625,3.046501c1.849762,1.003532 3.687782,1.972778 7.173332,4.010666c1.680695,0.982651 3.29155,1.987701 4.839005,3.004501c1.511124,0.992928 2.962631,2.002731 4.352997,3.031502c1.362213,1.007935 2.691772,2.01046 5.141327,4.130661c1.196472,1.035606 2.329376,2.105049 3.419998,3.177002c1.06929,1.05098 2.087372,2.107811 3.060013,3.159004c0.947205,1.023697 1.85434,2.030418 3.519989,3.99733c0.787491,0.929932 1.529587,1.841942 2.238007,2.733002c0.688812,0.866386 1.34903,1.722549 1.985992,2.570999c0.628326,0.836937 1.244614,1.67215 2.442673,3.362663c0.603851,0.852074 1.201263,1.717392 1.804504,2.586006c0.606079,0.872719 1.213852,1.749069 1.831497,2.621994c0.618698,0.87442 1.233597,1.753189 2.53067,3.458664c0.646698,0.850327 1.310226,1.679428 1.981491,2.487c0.660858,0.795074 1.3246,1.560471 1.990509,2.289001c0.645325,0.706009 1.268173,1.387817 2.528,2.557343c0.578949,0.537445 1.152908,1.01088 1.700989,1.442993c0.51358,0.404922 1.007339,0.765335 1.46701,1.100998l0.427658,0.309677l0.393677,0.287659" id="svg_21" stroke-linecap="null" stroke-linejoin="null" stroke-dasharray="null" stroke-width="0" stroke="#000000" fill="none"/>
 </g>
</svg>